<svg width="34" height="34" viewBox="0 0 34 34" fill="none" xmlns="http://www.w3.org/2000/svg">
<g filter="url(#filter0_d_160_405)">
<ellipse cx="16.7829" cy="16.3656" rx="15.7829" ry="15.3656" fill="url(#paint0_linear_160_405)"/>
</g>
<path d="M8.43775 16.5453C7.77136 16.5453 7.21019 16.3233 6.75424 15.8794C6.29829 15.4355 6.07031 14.8892 6.07031 14.2404C6.07031 13.5917 6.29829 13.0453 6.75424 12.6014C7.21019 12.1576 7.77136 11.9356 8.43775 11.9356C9.10413 11.9356 9.6653 12.1576 10.1213 12.6014C10.5772 13.0453 10.8052 13.5917 10.8052 14.2404C10.8052 14.8892 10.5772 15.4355 10.1213 15.8794C9.6653 16.3233 9.10413 16.5453 8.43775 16.5453ZM13.3041 12.1917C12.6377 12.1917 12.0766 11.9698 11.6206 11.5259C11.1647 11.082 10.9367 10.5356 10.9367 9.88687C10.9367 9.2381 11.1647 8.69177 11.6206 8.24787C12.0766 7.80398 12.6377 7.58203 13.3041 7.58203C13.9705 7.58203 14.5317 7.80398 14.9876 8.24787C15.4436 8.69177 15.6716 9.2381 15.6716 9.88687C15.6716 10.5356 15.4436 11.082 14.9876 11.5259C14.5317 11.9698 13.9705 12.1917 13.3041 12.1917ZM19.8803 12.1917C19.2139 12.1917 18.6528 11.9698 18.1968 11.5259C17.7409 11.082 17.5129 10.5356 17.5129 9.88687C17.5129 9.2381 17.7409 8.69177 18.1968 8.24787C18.6528 7.80398 19.2139 7.58203 19.8803 7.58203C20.5467 7.58203 21.1079 7.80398 21.5638 8.24787C22.0198 8.69177 22.2478 9.2381 22.2478 9.88687C22.2478 10.5356 22.0198 11.082 21.5638 11.5259C21.1079 11.9698 20.5467 12.1917 19.8803 12.1917V12.1917ZM24.7467 16.5453C24.0803 16.5453 23.5192 16.3233 23.0632 15.8794C22.6073 15.4355 22.3793 14.8892 22.3793 14.2404C22.3793 13.5917 22.6073 13.0453 23.0632 12.6014C23.5192 12.1576 24.0803 11.9356 24.7467 11.9356C25.4131 11.9356 25.9743 12.1576 26.4302 12.6014C26.8862 13.0453 27.1142 13.5917 27.1142 14.2404C27.1142 14.8892 26.8862 15.4355 26.4302 15.8794C25.9743 16.3233 25.4131 16.5453 24.7467 16.5453ZM10.963 27.0451C10.2265 27.0451 9.62146 26.7762 9.14798 26.2384C8.67449 25.7006 8.43775 25.0646 8.43775 24.3305C8.43775 23.6134 8.66134 22.9775 9.10852 22.4226C9.5557 21.8677 10.0336 21.3342 10.5421 20.822C10.9279 20.4464 11.2874 20.0495 11.6206 19.6312C11.9538 19.2129 12.2695 18.7818 12.5676 18.3379C13.0762 17.5867 13.6461 16.8867 14.2774 16.238C14.9087 15.5892 15.6803 15.2648 16.5922 15.2648C17.5041 15.2648 18.2801 15.5892 18.9202 16.238C19.5603 16.8867 20.1346 17.5953 20.6432 18.3635C20.9413 18.8074 21.2526 19.2342 21.577 19.644C21.9014 20.0537 22.2565 20.4464 22.6423 20.822C23.1509 21.3342 23.6288 21.8677 24.076 22.4226C24.5231 22.9775 24.7467 23.6134 24.7467 24.3305C24.7467 25.0646 24.51 25.7006 24.0365 26.2384C23.563 26.7762 22.958 27.0451 22.2215 27.0451C21.2745 27.0451 20.3363 26.9682 19.4069 26.8146C18.4774 26.6609 17.5392 26.5841 16.5922 26.5841C15.6453 26.5841 14.7071 26.6609 13.7776 26.8146C12.8482 26.9682 11.91 27.0451 10.963 27.0451V27.0451Z" fill="white"/>
<defs>
<filter id="filter0_d_160_405" x="0.0114069" y="0.505703" width="33.543" height="32.7081" filterUnits="userSpaceOnUse" color-interpolation-filters="sRGB">
<feFlood flood-opacity="0" result="BackgroundImageFix"/>
<feColorMatrix in="SourceAlpha" type="matrix" values="0 0 0 0 0 0 0 0 0 0 0 0 0 0 0 0 0 0 127 0" result="hardAlpha"/>
<feOffset dy="0.494297"/>
<feGaussianBlur stdDeviation="0.494297"/>
<feColorMatrix type="matrix" values="0 0 0 0 0 0 0 0 0 0 0 0 0 0 0 0 0 0 0.1 0"/>
<feBlend mode="normal" in2="BackgroundImageFix" result="effect1_dropShadow_160_405"/>
<feBlend mode="normal" in="SourceGraphic" in2="effect1_dropShadow_160_405" result="shape"/>
</filter>
<linearGradient id="paint0_linear_160_405" x1="16.7829" y1="1" x2="16.7829" y2="31.7311" gradientUnits="userSpaceOnUse">
<stop stop-color="#FF934C"/>
<stop offset="1" stop-color="#F17727"/>
</linearGradient>
</defs>
</svg>
