<svg width="24" height="24" viewBox="0 0 24 24" fill="none" xmlns="http://www.w3.org/2000/svg">
<path d="M4.5 19.5H5.6L16.675 8.42505L15.575 7.32505L4.5 18.4V19.5ZM19.85 7.35005L16.65 4.15005L17.7 3.10005C17.9833 2.81672 18.3333 2.67505 18.75 2.67505C19.1667 2.67505 19.5167 2.81672 19.8 3.10005L20.9 4.20005C21.1833 4.48338 21.325 4.83338 21.325 5.25005C21.325 5.66672 21.1833 6.01672 20.9 6.30005L19.85 7.35005ZM18.8 8.40005L6.2 21H3V17.8L15.6 5.20005L18.8 8.40005ZM16.125 7.87505L15.575 7.32505L16.675 8.42505L16.125 7.87505Z" fill="black"/>
</svg>
