<svg width="64" height="64" viewBox="0 0 64 64" fill="none" xmlns="http://www.w3.org/2000/svg">
<circle cx="32" cy="32" r="32" fill="url(#paint0_linear_23_56)"/>
<path d="M18 52V31.9L17.3 31.2C16.9333 30.8333 16.675 30.45 16.525 30.05C16.375 29.65 16.3 29.2167 16.3 28.75C16.3 28.2833 16.375 27.8417 16.525 27.425C16.675 27.0083 16.9333 26.6167 17.3 26.25L23.7 19.8H32.7L40.5 12L44.25 15.75C45.55 17.05 46.525 18.5417 47.175 20.225C47.825 21.9083 48.1667 23.6 48.2 25.3C48.1667 27 47.825 28.6917 47.175 30.375C46.525 32.0583 45.55 33.55 44.25 34.85L40 39.1V52H18ZM21 49H37V37.85L42.1 32.75C43.1333 31.7167 43.9083 30.5583 44.425 29.275C44.9417 27.9917 45.2 26.6667 45.2 25.3C45.2 23.9333 44.9417 22.6167 44.425 21.35C43.9083 20.0833 43.1333 18.9333 42.1 17.9L40.5 16.25L33.95 22.8H24.95L23.3 24.45L27 28.15C27.9333 29.0833 28.6333 30.125 29.1 31.275C29.5667 32.425 29.8 33.6167 29.8 34.85C29.8 36.0167 29.6 37.15 29.2 38.25C28.8 39.35 28.1833 40.35 27.35 41.25L21 34.9V49Z" fill="white"/>
<defs>
<linearGradient id="paint0_linear_23_56" x1="32" y1="0" x2="32" y2="64" gradientUnits="userSpaceOnUse">
<stop stop-color="#FF934C"/>
<stop offset="1" stop-color="#F17727"/>
</linearGradient>
</defs>
</svg>
