<svg width="64" height="64" viewBox="0 0 64 64" fill="none" xmlns="http://www.w3.org/2000/svg">
<circle cx="32" cy="32" r="32" fill="url(#paint0_linear_23_30)"/>
<path d="M49.8 49.95L36.65 36.8C35.65 37.6667 34.4833 38.3417 33.15 38.825C31.8167 39.3083 30.4 39.55 28.9 39.55C25.3 39.55 22.25 38.3 19.75 35.8C17.25 33.3 16 30.2833 16 26.75C16 23.2167 17.25 20.2 19.75 17.7C22.25 15.2 25.2833 13.95 28.85 13.95C32.3833 13.95 35.3917 15.2 37.875 17.7C40.3583 20.2 41.6 23.2167 41.6 26.75C41.6 28.1833 41.3667 29.5667 40.9 30.9C40.4333 32.2333 39.7333 33.4833 38.8 34.65L52 47.75L49.8 49.95ZM28.85 36.55C31.55 36.55 33.85 35.5917 35.75 33.675C37.65 31.7583 38.6 29.45 38.6 26.75C38.6 24.05 37.65 21.7417 35.75 19.825C33.85 17.9083 31.55 16.95 28.85 16.95C26.1167 16.95 23.7917 17.9083 21.875 19.825C19.9583 21.7417 19 24.05 19 26.75C19 29.45 19.9583 31.7583 21.875 33.675C23.7917 35.5917 26.1167 36.55 28.85 36.55Z" fill="white"/>
<defs>
<linearGradient id="paint0_linear_23_30" x1="32" y1="0" x2="32" y2="64" gradientUnits="userSpaceOnUse">
<stop stop-color="#FF934C"/>
<stop offset="1" stop-color="#F17727"/>
</linearGradient>
</defs>
</svg>
