<svg width="64" height="64" viewBox="0 0 64 64" fill="none" xmlns="http://www.w3.org/2000/svg">
<circle cx="32" cy="32" r="32" fill="url(#paint0_linear_23_66)"/>
<path d="M32 51.95L29.95 50.1C26.4167 46.8666 23.5 44.075 21.2 41.725C18.9 39.375 17.0667 37.275 15.7 35.425C14.3333 33.575 13.375 31.9 12.825 30.4C12.275 28.9 12 27.3833 12 25.85C12 22.85 13.0083 20.3417 15.025 18.325C17.0417 16.3083 19.5333 15.3 22.5 15.3C24.4 15.3 26.1583 15.75 27.775 16.65C29.3917 17.55 30.8 18.85 32 20.55C33.4 18.75 34.8833 17.425 36.45 16.575C38.0167 15.725 39.7 15.3 41.5 15.3C44.4667 15.3 46.9583 16.3083 48.975 18.325C50.9917 20.3417 52 22.85 52 25.85C52 27.3833 51.725 28.9 51.175 30.4C50.625 31.9 49.6667 33.575 48.3 35.425C46.9333 37.275 45.1 39.375 42.8 41.725C40.5 44.075 37.5833 46.8666 34.05 50.1L32 51.95ZM32 48C35.3667 44.9 38.1417 42.2416 40.325 40.025C42.5083 37.8083 44.2417 35.8667 45.525 34.2C46.8083 32.5333 47.7083 31.05 48.225 29.75C48.7417 28.45 49 27.15 49 25.85C49 23.65 48.3 21.8417 46.9 20.425C45.5 19.0083 43.7 18.3 41.5 18.3C39.8 18.3 38.2167 18.825 36.75 19.875C35.2833 20.925 34.1 22.4 33.2 24.3H30.75C29.8833 22.4333 28.7167 20.9667 27.25 19.9C25.7833 18.8333 24.2 18.3 22.5 18.3C20.3 18.3 18.5 19.0083 17.1 20.425C15.7 21.8417 15 23.65 15 25.85C15 27.15 15.2583 28.4583 15.775 29.775C16.2917 31.0917 17.1917 32.5917 18.475 34.275C19.7583 35.9583 21.5 37.9 23.7 40.1C25.9 42.3 28.6667 44.9333 32 48Z" fill="white"/>
<defs>
<linearGradient id="paint0_linear_23_66" x1="32" y1="0" x2="32" y2="64" gradientUnits="userSpaceOnUse">
<stop stop-color="#FF934C"/>
<stop offset="1" stop-color="#F17727"/>
</linearGradient>
</defs>
</svg>
