<svg width="64" height="64" viewBox="0 0 64 64" fill="none" xmlns="http://www.w3.org/2000/svg">
<circle cx="32" cy="32" r="32" fill="url(#paint0_linear_23_46)"/>
<path d="M17 50C16.2 50 15.5 49.7 14.9 49.1C14.3 48.5 14 47.8 14 47V17C14 16.2 14.3 15.5 14.9 14.9C15.5 14.3 16.2 14 17 14H27.35C27.2833 12.7667 27.7167 11.6583 28.65 10.675C29.5833 9.69168 30.7 9.20001 32 9.20001C33.3 9.20001 34.4167 9.69168 35.35 10.675C36.2833 11.6583 36.7167 12.7667 36.65 14H47C47.8 14 48.5 14.3 49.1 14.9C49.7 15.5 50 16.2 50 17V47C50 47.8 49.7 48.5 49.1 49.1C48.5 49.7 47.8 50 47 50H17ZM32 14.9C32.4333 14.9 32.7917 14.7583 33.075 14.475C33.3583 14.1917 33.5 13.8333 33.5 13.4C33.5 12.9667 33.3583 12.6083 33.075 12.325C32.7917 12.0417 32.4333 11.9 32 11.9C31.5667 11.9 31.2083 12.0417 30.925 12.325C30.6417 12.6083 30.5 12.9667 30.5 13.4C30.5 13.8333 30.6417 14.1917 30.925 14.475C31.2083 14.7583 31.5667 14.9 32 14.9ZM17 45.15C19 43.2833 21.2667 41.775 23.8 40.625C26.3333 39.475 29.0667 38.9 32 38.9C34.9333 38.9 37.6667 39.475 40.2 40.625C42.7333 41.775 45 43.2833 47 45.15V17H17V45.15ZM32.1 34.95C34.0333 34.95 35.6667 34.2833 37 32.95C38.3333 31.6167 39 29.9833 39 28.05C39 26.1167 38.3333 24.4833 37 23.15C35.6667 21.8167 34.0333 21.15 32.1 21.15C30.1667 21.15 28.5333 21.8167 27.2 23.15C25.8667 24.4833 25.2 26.1167 25.2 28.05C25.2 29.9833 25.8667 31.6167 27.2 32.95C28.5333 34.2833 30.1667 34.95 32.1 34.95ZM19.75 47H44.25V46.55C42.45 45.0167 40.5167 43.8583 38.45 43.075C36.3833 42.2917 34.2333 41.9 32 41.9C29.7667 41.9 27.6167 42.2917 25.55 43.075C23.4833 43.8583 21.55 45.0167 19.75 46.55V47ZM32.1 31.95C31.0333 31.95 30.1167 31.5667 29.35 30.8C28.5833 30.0333 28.2 29.1167 28.2 28.05C28.2 26.95 28.5833 26.025 29.35 25.275C30.1167 24.525 31.0333 24.15 32.1 24.15C33.2 24.15 34.125 24.525 34.875 25.275C35.625 26.025 36 26.95 36 28.05C36 29.1167 35.625 30.0333 34.875 30.8C34.125 31.5667 33.2 31.95 32.1 31.95Z" fill="white"/>
<defs>
<linearGradient id="paint0_linear_23_46" x1="32" y1="0" x2="32" y2="64" gradientUnits="userSpaceOnUse">
<stop stop-color="#FF934C"/>
<stop offset="1" stop-color="#F17727"/>
</linearGradient>
</defs>
</svg>
