<svg width="18" height="18" viewBox="0 0 18 18" fill="none" xmlns="http://www.w3.org/2000/svg">
<g clip-path="url(#clip0_23_90)">
<path d="M5.27257 0.0630659C4.31497 0.108246 3.66103 0.261066 3.08935 0.485706C2.49769 0.716286 1.99621 1.02571 1.49725 1.52647C0.998294 2.02723 0.691034 2.52907 0.462075 3.12163C0.240495 3.69457 0.0903746 4.34905 0.0480746 5.30719C0.0057746 6.26533 -0.00358541 6.57331 0.00109459 9.01735C0.00577459 11.4614 0.0165746 11.7677 0.0630146 12.7279C0.108735 13.6853 0.261015 14.339 0.485655 14.9109C0.716594 15.5026 1.02565 16.0039 1.52659 16.503C2.02753 17.0021 2.52901 17.3087 3.12301 17.538C3.69541 17.7592 4.35007 17.9101 5.30803 17.952C6.26599 17.9939 6.57433 18.0037 9.01765 17.999C11.461 17.9943 11.7686 17.9835 12.7285 17.938C13.6885 17.8924 14.3388 17.7391 14.9109 17.5155C15.5025 17.284 16.0042 16.9755 16.503 16.4744C17.0017 15.9733 17.3088 15.4711 17.5376 14.8781C17.7594 14.3057 17.91 13.6511 17.9516 12.6938C17.9935 11.7332 18.0034 11.4265 17.9988 8.98279C17.9941 6.53911 17.9831 6.23275 17.9376 5.27299C17.892 4.31323 17.7396 3.66145 17.5151 3.08923C17.2838 2.49757 16.9751 1.99663 16.4743 1.49713C15.9736 0.997626 15.471 0.690726 14.8783 0.462486C14.3055 0.240906 13.6512 0.0898859 12.6933 0.0484859C11.7353 0.00708592 11.427 -0.00353408 8.98273 0.00114592C6.53851 0.00582592 6.23251 0.0162659 5.27257 0.0630659ZM5.37769 16.3329C4.50019 16.2947 4.02373 16.1489 3.70621 16.0269C3.28573 15.8649 2.98621 15.6691 2.66977 15.3557C2.35333 15.0423 2.15893 14.7417 1.99477 14.3221C1.87147 14.0046 1.72297 13.5287 1.68193 12.6512C1.63729 11.7028 1.62793 11.418 1.62271 9.01519C1.61749 6.61237 1.62667 6.32797 1.66825 5.37919C1.70569 4.50241 1.85239 4.02541 1.97425 3.70807C2.13625 3.28705 2.33137 2.98807 2.64547 2.67181C2.95957 2.35555 3.25927 2.16079 3.67921 1.99663C3.99637 1.87279 4.47229 1.72555 5.34943 1.68379C6.29857 1.63879 6.58297 1.62979 8.98543 1.62457C11.3879 1.61935 11.673 1.62835 12.6225 1.67011C13.4993 1.70827 13.9765 1.85353 14.2935 1.97611C14.7141 2.13811 15.0135 2.33269 15.3297 2.64733C15.646 2.96197 15.8409 3.26059 16.0051 3.68143C16.1291 3.99769 16.2763 4.47343 16.3177 5.35111C16.3629 6.30025 16.3732 6.58483 16.3775 8.98711C16.3818 11.3894 16.3734 11.6747 16.3318 12.6231C16.2934 13.5006 16.148 13.9772 16.0258 14.2951C15.8638 14.7154 15.6685 15.0151 15.3542 15.3312C15.0399 15.6473 14.7406 15.842 14.3205 16.0062C14.0037 16.1299 13.5272 16.2775 12.6508 16.3192C11.7016 16.3639 11.4172 16.3732 9.01387 16.3784C6.61051 16.3837 6.32701 16.3739 5.37787 16.3329M12.7147 4.18993C12.715 4.40354 12.7787 4.61226 12.8977 4.78967C13.0167 4.96709 13.1856 5.10523 13.3831 5.18664C13.5806 5.26804 13.7978 5.28904 14.0073 5.24699C14.2167 5.20494 14.409 5.10173 14.5597 4.9504C14.7105 4.79907 14.813 4.60643 14.8543 4.39683C14.8956 4.18724 14.8738 3.97012 14.7917 3.77291C14.7095 3.57571 14.5708 3.4073 14.3929 3.28896C14.2151 3.17063 14.0061 3.1077 13.7925 3.10813C13.5061 3.1087 13.2317 3.22298 13.0296 3.42585C12.8275 3.62872 12.7142 3.90355 12.7147 4.18993ZM4.37887 9.00907C4.38391 11.5615 6.45679 13.6259 9.00865 13.621C11.5605 13.6162 13.6264 11.5435 13.6215 8.99107C13.6167 6.43867 11.5432 4.37371 8.99101 4.37875C6.43879 4.38379 4.37401 6.45703 4.37887 9.00907ZM5.99995 9.00583C5.99878 8.41247 6.17358 7.83209 6.50226 7.33809C6.83093 6.84408 7.29871 6.45863 7.84645 6.23047C8.39419 6.00232 8.99728 5.94172 9.57946 6.05632C10.1616 6.17093 10.6968 6.4556 11.1172 6.87433C11.5376 7.29307 11.8243 7.82706 11.9413 8.40878C12.0582 8.99051 12 9.59383 11.774 10.1425C11.548 10.6911 11.1644 11.1604 10.6717 11.491C10.179 11.8217 9.59931 11.9988 9.00595 11.9999C8.61197 12.0008 8.22168 11.924 7.85737 11.774C7.49307 11.6239 7.16189 11.4036 6.88274 11.1256C6.6036 10.8475 6.38197 10.5172 6.23049 10.1535C6.07902 9.7898 6.00069 9.39981 5.99995 9.00583Z" fill="white"/>
</g>
<defs>
<clipPath id="clip0_23_90">
<rect width="18" height="18" fill="white"/>
</clipPath>
</defs>
</svg>
