<svg width="30" height="30" viewBox="0 0 30 30" fill="none" xmlns="http://www.w3.org/2000/svg">
<rect width="30" height="30" rx="8" fill="#F7F7F7"/>
<path d="M22.9 23.975L16.325 17.4C15.825 17.8333 15.2417 18.1708 14.575 18.4125C13.9083 18.6542 13.2 18.775 12.45 18.775C10.65 18.775 9.125 18.15 7.875 16.9C6.625 15.65 6 14.1417 6 12.375C6 10.6083 6.625 9.1 7.875 7.85C9.125 6.6 10.6417 5.975 12.425 5.975C14.1917 5.975 15.6958 6.6 16.9375 7.85C18.1792 9.1 18.8 10.6083 18.8 12.375C18.8 13.0917 18.6833 13.7833 18.45 14.45C18.2167 15.1167 17.8667 15.7417 17.4 16.325L24 22.875L22.9 23.975ZM12.425 17.275C13.775 17.275 14.925 16.7958 15.875 15.8375C16.825 14.8792 17.3 13.725 17.3 12.375C17.3 11.025 16.825 9.87083 15.875 8.9125C14.925 7.95417 13.775 7.475 12.425 7.475C11.0583 7.475 9.89583 7.95417 8.9375 8.9125C7.97917 9.87083 7.5 11.025 7.5 12.375C7.5 13.725 7.97917 14.8792 8.9375 15.8375C9.89583 16.7958 11.0583 17.275 12.425 17.275Z" fill="#404040"/>
</svg>
