<svg width="262" height="35" viewBox="0 0 262 35" fill="none" xmlns="http://www.w3.org/2000/svg">
<path d="M41.7004 29C41.2786 29 40.9201 28.8629 40.6248 28.5887C40.3507 28.2935 40.2136 27.935 40.2136 27.5132V5.77992C40.2136 5.35813 40.3507 5.01014 40.6248 4.73597C40.9201 4.44071 41.2786 4.29308 41.7004 4.29308H48.0274C49.6092 4.29308 51.0011 4.64107 52.2032 5.33703C53.4265 6.033 54.3755 6.9926 55.0504 8.21582C55.7253 9.41795 56.0627 10.8204 56.0627 12.4233C56.0627 13.9628 55.7253 15.3337 55.0504 16.5358C54.3755 17.7379 53.4265 18.6765 52.2032 19.3513C51.0011 20.0262 49.6092 20.3637 48.0274 20.3637H43.1873V27.5132C43.1873 27.935 43.0502 28.2935 42.776 28.5887C42.5018 28.8629 42.1433 29 41.7004 29ZM43.1873 17.5798H48.0274C49.0397 17.5798 49.9361 17.3583 50.7164 16.9154C51.4967 16.4725 52.1083 15.8609 52.5512 15.0806C52.9941 14.3003 53.2156 13.4145 53.2156 12.4233C53.2156 11.3688 52.9941 10.4408 52.5512 9.63939C52.1083 8.83797 51.4967 8.21582 50.7164 7.77293C49.9361 7.30895 49.0397 7.07696 48.0274 7.07696H43.1873V17.5798ZM66.9011 29.1265C65.1507 29.1265 63.6006 28.7575 62.2508 28.0193C60.9221 27.2601 59.8782 26.2267 59.1189 24.9191C58.3597 23.5904 57.9801 22.0719 57.9801 20.3637C57.9801 18.6343 58.3386 17.1158 59.0557 15.8082C59.7727 14.4795 60.764 13.4461 62.0294 12.708C63.2948 11.9487 64.7605 11.5691 66.4266 11.5691C68.0505 11.5691 69.453 11.9382 70.6341 12.6763C71.8151 13.3934 72.722 14.3952 73.3547 15.6817C73.9874 16.9471 74.3037 18.4128 74.3037 20.0789C74.3037 20.4375 74.1772 20.7433 73.9241 20.9963C73.6921 21.2283 73.3758 21.3443 72.9751 21.3443H59.9731V19.0033H73.0067L71.7097 19.9208C71.6886 18.803 71.4671 17.8012 71.0453 16.9154C70.6235 16.0297 70.0225 15.3337 69.2421 14.8275C68.4618 14.3214 67.5233 14.0683 66.4266 14.0683C65.2245 14.0683 64.1805 14.3425 63.2948 14.8908C62.4301 15.4391 61.7657 16.1878 61.3018 17.1369C60.8378 18.0859 60.6058 19.1615 60.6058 20.3637C60.6058 21.5658 60.8694 22.6414 61.3967 23.5904C61.945 24.5184 62.6831 25.2565 63.6111 25.8049C64.5602 26.3532 65.6568 26.6274 66.9011 26.6274C67.576 26.6274 68.272 26.5008 68.9891 26.2478C69.7272 25.9947 70.3072 25.6994 70.729 25.362C71.0242 25.13 71.3406 25.014 71.678 25.014C72.0155 24.9929 72.3107 25.0878 72.5638 25.2987C72.8802 25.594 73.0489 25.9209 73.07 26.2794C73.0911 26.6168 72.9434 26.9121 72.6271 27.1652C71.91 27.7346 71.0137 28.2091 69.9381 28.5887C68.8836 28.9473 67.8713 29.1265 66.9011 29.1265ZM84.9066 29C83.831 29 82.8609 28.7364 81.9962 28.2091C81.1315 27.6608 80.4566 26.9332 79.9716 26.0263C79.4865 25.0984 79.244 24.0439 79.244 22.8628V7.64639C79.244 7.22459 79.3705 6.8766 79.6236 6.60243C79.8978 6.32826 80.2458 6.19118 80.6676 6.19118C81.0893 6.19118 81.4373 6.32826 81.7115 6.60243C81.9857 6.8766 82.1228 7.22459 82.1228 7.64639V22.8628C82.1228 23.8119 82.3864 24.5922 82.9136 25.2038C83.4409 25.8154 84.1052 26.1212 84.9066 26.1212H85.8873C86.2459 26.1212 86.5411 26.2583 86.7731 26.5325C87.0262 26.8066 87.1527 27.1546 87.1527 27.5764C87.1527 27.9982 86.9945 28.3462 86.6782 28.6204C86.3829 28.8735 85.9928 29 85.5077 29H84.9066ZM77.5357 14.8275C77.1561 14.8275 76.8397 14.7115 76.5866 14.4795C76.3336 14.2476 76.207 13.9523 76.207 13.5938C76.207 13.2141 76.3336 12.9083 76.5866 12.6763C76.8397 12.4444 77.1561 12.3284 77.5357 12.3284H85.1597C85.5393 12.3284 85.8557 12.4444 86.1088 12.6763C86.3618 12.9083 86.4884 13.2141 86.4884 13.5938C86.4884 13.9523 86.3618 14.2476 86.1088 14.4795C85.8557 14.7115 85.5393 14.8275 85.1597 14.8275H77.5357Z" fill="#F17727"/>
<path d="M102.507 29.3163C100.799 29.3163 99.1962 29 97.6988 28.3673C96.2225 27.7135 94.9255 26.8066 93.8077 25.6467C92.711 24.4867 91.8463 23.137 91.2136 21.5974C90.5809 20.0578 90.2646 18.4023 90.2646 16.6307C90.2646 14.8803 90.5704 13.2458 91.182 11.7273C91.8147 10.1877 92.6899 8.83797 93.8077 7.67802C94.9255 6.51807 96.2225 5.6112 97.6988 4.95741C99.1751 4.30363 100.778 3.97673 102.507 3.97673C104.089 3.97673 105.481 4.19818 106.683 4.64106C107.885 5.06286 109.077 5.75883 110.258 6.72897C110.427 6.85551 110.543 7.00314 110.606 7.17186C110.69 7.31949 110.722 7.47767 110.701 7.64639C110.701 7.79402 110.669 7.94165 110.606 8.08928C110.585 8.40563 110.448 8.66925 110.195 8.88015C109.963 9.06996 109.678 9.16487 109.34 9.16487C109.003 9.16487 108.687 9.04887 108.391 8.81688C107.59 8.12091 106.746 7.59366 105.861 7.23513C104.975 6.8766 103.857 6.69734 102.507 6.69734C101.221 6.69734 100.008 6.96096 98.8693 7.48821C97.7515 8.01546 96.7603 8.73252 95.8956 9.63939C95.0309 10.5463 94.356 11.6008 93.871 12.8029C93.3859 14.005 93.1433 15.281 93.1433 16.6307C93.1433 18.0227 93.3859 19.3197 93.871 20.5218C94.356 21.7029 95.0309 22.7574 95.8956 23.6853C96.7603 24.5922 97.7515 25.2987 98.8693 25.8049C100.008 26.311 101.221 26.5641 102.507 26.5641C103.625 26.5641 104.68 26.3848 105.671 26.0263C106.662 25.6467 107.601 25.1194 108.486 24.4446C108.824 24.1915 109.161 24.086 109.499 24.1282C109.836 24.1493 110.121 24.2864 110.353 24.5395C110.585 24.7715 110.701 25.0984 110.701 25.5202C110.701 25.71 110.669 25.8998 110.606 26.0896C110.564 26.2583 110.448 26.4165 110.258 26.5641C109.161 27.5342 107.949 28.2408 106.62 28.6837C105.312 29.1054 103.941 29.3163 102.507 29.3163ZM110.701 25.5202L107.854 24.9191V19.0033H103.267C102.845 19.0033 102.486 18.8768 102.191 18.6237C101.917 18.3706 101.78 18.0543 101.78 17.6747C101.78 17.2951 101.917 16.9893 102.191 16.7573C102.486 16.5042 102.845 16.3776 103.267 16.3776H109.246C109.688 16.3776 110.036 16.5147 110.29 16.7889C110.564 17.0631 110.701 17.4111 110.701 17.8329V25.5202ZM122.988 29.1582C121.512 29.1582 120.194 28.8524 119.034 28.2408C117.874 27.6081 116.956 26.6906 116.282 25.4885C115.607 24.2864 115.269 22.8206 115.269 21.0913V13.1192C115.269 12.7185 115.406 12.3811 115.681 12.1069C115.976 11.8117 116.324 11.664 116.725 11.664C117.146 11.664 117.494 11.8117 117.768 12.1069C118.064 12.3811 118.211 12.7185 118.211 13.1192V21.0913C118.211 22.3145 118.443 23.3268 118.907 24.1282C119.371 24.9296 119.993 25.5307 120.774 25.9314C121.575 26.311 122.472 26.5008 123.463 26.5008C124.433 26.5008 125.287 26.311 126.025 25.9314C126.784 25.5518 127.385 25.0456 127.828 24.4129C128.292 23.7591 128.524 23.0315 128.524 22.2301H130.422C130.38 23.5377 130.032 24.7187 129.378 25.7732C128.746 26.8277 127.871 27.6608 126.753 28.2724C125.635 28.8629 124.38 29.1582 122.988 29.1582ZM129.98 29C129.558 29 129.21 28.8629 128.936 28.5887C128.661 28.3146 128.524 27.9666 128.524 27.5448V13.1192C128.524 12.6974 128.661 12.3495 128.936 12.0753C129.21 11.8011 129.558 11.664 129.98 11.664C130.401 11.664 130.749 11.8011 131.024 12.0753C131.298 12.3495 131.435 12.6974 131.435 13.1192V27.5448C131.435 27.9666 131.298 28.3146 131.024 28.5887C130.749 28.8629 130.401 29 129.98 29ZM144.49 29.1265C142.908 29.1265 141.495 28.7469 140.251 27.9877C139.007 27.2284 138.026 26.1845 137.309 24.8558C136.592 23.5271 136.233 22.0298 136.233 20.3637C136.233 18.6765 136.613 17.1791 137.372 15.8715C138.153 14.5428 139.197 13.4989 140.504 12.7396C141.833 11.9593 143.32 11.5691 144.965 11.5691C146.631 11.5691 148.118 11.9593 149.425 12.7396C150.733 13.4989 151.766 14.5428 152.525 15.8715C153.306 17.2002 153.706 18.6975 153.728 20.3637L152.589 20.6484C152.589 22.2512 152.23 23.6959 151.513 24.9824C150.796 26.2688 149.826 27.2812 148.603 28.0193C147.401 28.7575 146.03 29.1265 144.49 29.1265ZM144.965 26.5325C146.104 26.5325 147.116 26.2688 148.002 25.7416C148.887 25.1933 149.583 24.4551 150.09 23.5271C150.617 22.5781 150.88 21.5236 150.88 20.3637C150.88 19.1826 150.617 18.1281 150.09 17.2002C149.583 16.2511 148.887 15.513 148.002 14.9857C147.116 14.4374 146.104 14.1632 144.965 14.1632C143.868 14.1632 142.866 14.4374 141.959 14.9857C141.052 15.513 140.335 16.2511 139.808 17.2002C139.302 18.1281 139.049 19.1826 139.049 20.3637C139.049 21.5236 139.302 22.5781 139.808 23.5271C140.335 24.4551 141.052 25.1933 141.959 25.7416C142.866 26.2688 143.868 26.5325 144.965 26.5325ZM152.241 29.0316C151.819 29.0316 151.471 28.8946 151.197 28.6204C150.923 28.3462 150.785 27.9982 150.785 27.5764V22.5148L151.387 19.4779L153.728 20.3637V27.5764C153.728 27.9982 153.58 28.3462 153.285 28.6204C153.01 28.8946 152.663 29.0316 152.241 29.0316ZM159.826 18.2441C159.868 16.9576 160.195 15.8082 160.807 14.7959C161.44 13.7836 162.273 12.9822 163.306 12.3916C164.339 11.8011 165.478 11.5059 166.723 11.5059C167.883 11.5059 168.747 11.6851 169.317 12.0437C169.907 12.4022 170.129 12.8556 169.981 13.404C169.918 13.7203 169.791 13.9523 169.601 14.0999C169.412 14.2265 169.19 14.3003 168.937 14.3214C168.684 14.3214 168.41 14.3003 168.115 14.2581C166.828 14.0472 165.679 14.0788 164.666 14.353C163.654 14.6272 162.853 15.1017 162.262 15.7766C161.672 16.4515 161.376 17.274 161.376 18.2441H159.826ZM159.921 29C159.478 29 159.13 28.884 158.877 28.652C158.624 28.3989 158.498 28.0404 158.498 27.5764V13.1192C158.498 12.6764 158.624 12.3284 158.877 12.0753C159.13 11.8222 159.478 11.6957 159.921 11.6957C160.406 11.6957 160.765 11.8222 160.997 12.0753C161.25 12.3073 161.376 12.6553 161.376 13.1192V27.5764C161.376 28.0193 161.25 28.3673 160.997 28.6204C160.765 28.8735 160.406 29 159.921 29ZM180.091 29.1265C178.446 29.1265 176.959 28.7469 175.63 27.9877C174.322 27.2074 173.279 26.1529 172.498 24.8242C171.739 23.4955 171.359 21.9981 171.359 20.332C171.359 18.6659 171.718 17.1791 172.435 15.8715C173.152 14.5428 174.133 13.4989 175.377 12.7396C176.621 11.9593 178.034 11.5691 179.616 11.5691C180.924 11.5691 182.115 11.8433 183.191 12.3916C184.288 12.94 185.194 13.6781 185.911 14.6061V5.74829C185.911 5.3054 186.049 4.95741 186.323 4.70434C186.597 4.43017 186.945 4.29308 187.367 4.29308C187.81 4.29308 188.168 4.43017 188.442 4.70434C188.716 4.95741 188.853 5.3054 188.853 5.74829V20.3953C188.832 22.0403 188.432 23.5271 187.651 24.8558C186.892 26.1845 185.848 27.2284 184.52 27.9877C183.212 28.7469 181.736 29.1265 180.091 29.1265ZM180.091 26.5325C181.229 26.5325 182.242 26.2688 183.128 25.7416C184.013 25.1933 184.709 24.4551 185.215 23.5271C185.743 22.5781 186.006 21.5131 186.006 20.332C186.006 19.151 185.743 18.0965 185.215 17.1685C184.709 16.2406 184.013 15.513 183.128 14.9857C182.242 14.4374 181.229 14.1632 180.091 14.1632C178.994 14.1632 177.992 14.4374 177.085 14.9857C176.178 15.513 175.461 16.2406 174.934 17.1685C174.428 18.0965 174.175 19.151 174.175 20.332C174.175 21.5131 174.428 22.5781 174.934 23.5271C175.461 24.4551 176.178 25.1933 177.085 25.7416C177.992 26.2688 178.994 26.5325 180.091 26.5325ZM196.417 29C195.974 29 195.615 28.8629 195.341 28.5887C195.067 28.3146 194.93 27.9666 194.93 27.5448V13.1509C194.93 12.708 195.067 12.36 195.341 12.1069C195.615 11.8327 195.974 11.6957 196.417 11.6957C196.839 11.6957 197.187 11.8327 197.461 12.1069C197.735 12.36 197.872 12.708 197.872 13.1509V27.5448C197.872 27.9666 197.735 28.3146 197.461 28.5887C197.187 28.8629 196.839 29 196.417 29ZM196.385 8.69034C195.858 8.69034 195.404 8.50053 195.025 8.12091C194.645 7.74129 194.455 7.27731 194.455 6.72897C194.455 6.18063 194.645 5.7272 195.025 5.36867C195.425 4.98905 195.889 4.79924 196.417 4.79924C196.923 4.79924 197.366 4.98905 197.745 5.36867C198.146 5.7272 198.346 6.18063 198.346 6.72897C198.346 7.27731 198.157 7.74129 197.777 8.12091C197.397 8.50053 196.933 8.69034 196.385 8.69034ZM211.313 29.1265C209.731 29.1265 208.318 28.7469 207.074 27.9877C205.829 27.2284 204.849 26.1845 204.132 24.8558C203.415 23.5271 203.056 22.0298 203.056 20.3637C203.056 18.6765 203.436 17.1791 204.195 15.8715C204.975 14.5428 206.019 13.4989 207.327 12.7396C208.656 11.9593 210.142 11.5691 211.787 11.5691C213.453 11.5691 214.94 11.9593 216.248 12.7396C217.555 13.4989 218.589 14.5428 219.348 15.8715C220.128 17.2002 220.529 18.6975 220.55 20.3637L219.411 20.6484C219.411 22.2512 219.053 23.6959 218.336 24.9824C217.619 26.2688 216.649 27.2812 215.425 28.0193C214.223 28.7575 212.852 29.1265 211.313 29.1265ZM211.787 26.5325C212.926 26.5325 213.939 26.2688 214.824 25.7416C215.71 25.1933 216.406 24.4551 216.912 23.5271C217.439 22.5781 217.703 21.5236 217.703 20.3637C217.703 19.1826 217.439 18.1281 216.912 17.2002C216.406 16.2511 215.71 15.513 214.824 14.9857C213.939 14.4374 212.926 14.1632 211.787 14.1632C210.691 14.1632 209.689 14.4374 208.782 14.9857C207.875 15.513 207.158 16.2511 206.631 17.2002C206.125 18.1281 205.872 19.1826 205.872 20.3637C205.872 21.5236 206.125 22.5781 206.631 23.5271C207.158 24.4551 207.875 25.1933 208.782 25.7416C209.689 26.2688 210.691 26.5325 211.787 26.5325ZM219.063 29.0316C218.642 29.0316 218.294 28.8946 218.019 28.6204C217.745 28.3462 217.608 27.9982 217.608 27.5764V22.5148L218.209 19.4779L220.55 20.3637V27.5764C220.55 27.9982 220.403 28.3462 220.107 28.6204C219.833 28.8946 219.485 29.0316 219.063 29.0316ZM240.03 29.0316C239.609 29.0316 239.25 28.8946 238.955 28.6204C238.681 28.3251 238.544 27.9771 238.544 27.5764V19.6044C238.544 18.3601 238.312 17.3478 237.848 16.5675C237.384 15.766 236.762 15.1755 235.981 14.7959C235.201 14.3952 234.305 14.1948 233.292 14.1948C232.343 14.1948 231.489 14.3846 230.73 14.7643C229.971 15.1439 229.359 15.65 228.895 16.2827C228.452 16.9154 228.231 17.643 228.231 18.4656H226.333C226.354 17.1369 226.691 15.9558 227.345 14.9224C227.999 13.8679 228.884 13.0454 230.002 12.4549C231.12 11.8433 232.375 11.5375 233.767 11.5375C235.243 11.5375 236.561 11.8538 237.721 12.4865C238.881 13.0981 239.798 14.005 240.473 15.2071C241.148 16.4093 241.486 17.875 241.486 19.6044V27.5764C241.486 27.9771 241.338 28.3251 241.043 28.6204C240.769 28.8946 240.431 29.0316 240.03 29.0316ZM226.775 29.0316C226.354 29.0316 226.006 28.8946 225.731 28.6204C225.457 28.3462 225.32 27.9982 225.32 27.5764V13.1509C225.32 12.708 225.457 12.36 225.731 12.1069C226.006 11.8327 226.354 11.6957 226.775 11.6957C227.218 11.6957 227.566 11.8327 227.819 12.1069C228.094 12.36 228.231 12.708 228.231 13.1509V27.5764C228.231 27.9982 228.094 28.3462 227.819 28.6204C227.566 28.8946 227.218 29.0316 226.775 29.0316ZM253.023 29.1265C251.631 29.1265 250.313 28.9156 249.068 28.4938C247.824 28.051 246.843 27.4499 246.126 26.6906C245.852 26.3743 245.736 26.0263 245.778 25.6467C245.82 25.2671 246.01 24.9402 246.348 24.666C246.706 24.3918 247.075 24.2758 247.455 24.318C247.834 24.3602 248.151 24.5289 248.404 24.8242C248.826 25.2882 249.437 25.6889 250.239 26.0263C251.061 26.3638 251.958 26.5325 252.928 26.5325C254.299 26.5325 255.311 26.311 255.965 25.8681C256.64 25.4042 256.987 24.8347 257.009 24.1598C257.009 23.4639 256.682 22.8839 256.028 22.4199C255.374 21.9349 254.225 21.5552 252.58 21.2811C250.45 20.8804 248.899 20.2582 247.929 19.4146C246.959 18.571 246.474 17.5481 246.474 16.346C246.474 15.2704 246.769 14.3846 247.36 13.6887C247.972 12.9716 248.762 12.4444 249.733 12.1069C250.724 11.7484 251.768 11.5691 252.864 11.5691C254.256 11.5691 255.48 11.8011 256.534 12.2651C257.589 12.708 258.432 13.3301 259.065 14.1316C259.339 14.4479 259.455 14.7748 259.413 15.1122C259.392 15.4497 259.223 15.7344 258.907 15.9664C258.59 16.1562 258.221 16.2195 257.799 16.1562C257.399 16.0929 257.061 15.9137 256.787 15.6184C256.26 15.0701 255.669 14.6904 255.016 14.4795C254.383 14.2476 253.645 14.1316 252.801 14.1316C251.789 14.1316 250.945 14.3214 250.27 14.701C249.617 15.0806 249.29 15.5973 249.29 16.2511C249.29 16.6729 249.395 17.042 249.606 17.3583C249.838 17.6747 250.26 17.9699 250.871 18.2441C251.483 18.4972 252.358 18.7292 253.497 18.9401C255.079 19.2353 256.323 19.6255 257.23 20.1106C258.158 20.5956 258.822 21.1651 259.223 21.8189C259.624 22.4726 259.824 23.2108 259.824 24.0333C259.824 25.0034 259.55 25.8787 259.002 26.659C258.474 27.4183 257.705 28.0193 256.692 28.4622C255.68 28.9051 254.457 29.1265 253.023 29.1265Z" fill="white"/>
<g filter="url(#filter0_d_23_76)">
<ellipse cx="16.8175" cy="16.3656" rx="15.8175" ry="15.3656" fill="url(#paint0_linear_23_76)"/>
</g>
<path d="M8.45406 16.5448C7.78621 16.5448 7.22381 16.3228 6.76686 15.8789C6.30991 15.4351 6.08144 14.8887 6.08144 14.24C6.08144 13.5912 6.30991 13.0449 6.76686 12.601C7.22381 12.1571 7.78621 11.9351 8.45406 11.9351C9.12191 11.9351 9.68431 12.1571 10.1413 12.601C10.5982 13.0449 10.8267 13.5912 10.8267 14.24C10.8267 14.8887 10.5982 15.4351 10.1413 15.8789C9.68431 16.3228 9.12191 16.5448 8.45406 16.5448ZM13.3311 12.1912C12.6633 12.1912 12.1009 11.9693 11.6439 11.5254C11.187 11.0815 10.9585 10.5351 10.9585 9.88638C10.9585 9.23761 11.187 8.69128 11.6439 8.24738C12.1009 7.80349 12.6633 7.58154 13.3311 7.58154C13.999 7.58154 14.5614 7.80349 15.0183 8.24738C15.4753 8.69128 15.7037 9.23761 15.7037 9.88638C15.7037 10.5351 15.4753 11.0815 15.0183 11.5254C14.5614 11.9693 13.999 12.1912 13.3311 12.1912ZM19.9217 12.1912C19.2539 12.1912 18.6915 11.9693 18.2345 11.5254C17.7776 11.0815 17.5491 10.5351 17.5491 9.88638C17.5491 9.23761 17.7776 8.69128 18.2345 8.24738C18.6915 7.80349 19.2539 7.58154 19.9217 7.58154C20.5896 7.58154 21.152 7.80349 21.6089 8.24738C22.0659 8.69128 22.2944 9.23761 22.2944 9.88638C22.2944 10.5351 22.0659 11.0815 21.6089 11.5254C21.152 11.9693 20.5896 12.1912 19.9217 12.1912ZM24.7988 16.5448C24.131 16.5448 23.5686 16.3228 23.1116 15.8789C22.6547 15.4351 22.4262 14.8887 22.4262 14.24C22.4262 13.5912 22.6547 13.0449 23.1116 12.601C23.5686 12.1571 24.131 11.9351 24.7988 11.9351C25.4667 11.9351 26.0291 12.1571 26.486 12.601C26.9429 13.0449 27.1714 13.5912 27.1714 14.24C27.1714 14.8887 26.9429 15.4351 26.486 15.8789C26.0291 16.3228 25.4667 16.5448 24.7988 16.5448ZM10.9849 27.0446C10.2467 27.0446 9.64037 26.7757 9.16585 26.2379C8.69132 25.7001 8.45406 25.0641 8.45406 24.33C8.45406 23.6129 8.67814 22.977 9.1263 22.4221C9.57447 21.8672 10.0534 21.3337 10.5631 20.8215C10.9497 20.4459 11.31 20.049 11.6439 19.6307C11.9778 19.2124 12.2942 18.7813 12.593 18.3374C13.1026 17.5862 13.6738 16.8862 14.3065 16.2375C14.9392 15.5887 15.7125 15.2643 16.6264 15.2643C17.5403 15.2643 18.318 15.5887 18.9595 16.2375C19.601 16.8862 20.1766 17.5948 20.6863 18.363C20.985 18.8069 21.297 19.2338 21.6221 19.6435C21.9473 20.0533 22.3032 20.4459 22.6898 20.8215C23.1995 21.3337 23.6784 21.8672 24.1266 22.4221C24.5747 22.977 24.7988 23.6129 24.7988 24.33C24.7988 25.0641 24.5615 25.7001 24.087 26.2379C23.6125 26.7757 23.0062 27.0446 22.268 27.0446C21.319 27.0446 20.3787 26.9678 19.4472 26.8141C18.5157 26.6604 17.5755 26.5836 16.6264 26.5836C15.6774 26.5836 14.7371 26.6604 13.8056 26.8141C12.8742 26.9678 11.9339 27.0446 10.9849 27.0446Z" fill="white"/>
<defs>
<filter id="filter0_d_23_76" x="0.0114069" y="0.505703" width="33.6122" height="32.7083" filterUnits="userSpaceOnUse" color-interpolation-filters="sRGB">
<feFlood flood-opacity="0" result="BackgroundImageFix"/>
<feColorMatrix in="SourceAlpha" type="matrix" values="0 0 0 0 0 0 0 0 0 0 0 0 0 0 0 0 0 0 127 0" result="hardAlpha"/>
<feOffset dy="0.494297"/>
<feGaussianBlur stdDeviation="0.494297"/>
<feColorMatrix type="matrix" values="0 0 0 0 0 0 0 0 0 0 0 0 0 0 0 0 0 0 0.1 0"/>
<feBlend mode="normal" in2="BackgroundImageFix" result="effect1_dropShadow_23_76"/>
<feBlend mode="normal" in="SourceGraphic" in2="effect1_dropShadow_23_76" result="shape"/>
</filter>
<linearGradient id="paint0_linear_23_76" x1="16.8175" y1="1" x2="16.8175" y2="31.7311" gradientUnits="userSpaceOnUse">
<stop stop-color="#FF934C"/>
<stop offset="1" stop-color="#F17727"/>
</linearGradient>
</defs>
</svg>
