<svg width="261" height="35" viewBox="0 0 261 35" fill="none" xmlns="http://www.w3.org/2000/svg">
<path d="M41.3765 29C40.9547 29 40.5962 28.8629 40.3009 28.5887C40.0267 28.2935 39.8896 27.935 39.8896 27.5132V5.77992C39.8896 5.35813 40.0267 5.01014 40.3009 4.73597C40.5962 4.44071 40.9547 4.29308 41.3765 4.29308H47.7035C49.2852 4.29308 50.6772 4.64107 51.8793 5.33703C53.1025 6.033 54.0516 6.9926 54.7265 8.21582C55.4013 9.41795 55.7388 10.8204 55.7388 12.4233C55.7388 13.9628 55.4013 15.3337 54.7265 16.5358C54.0516 17.7379 53.1025 18.6765 51.8793 19.3513C50.6772 20.0262 49.2852 20.3637 47.7035 20.3637H42.8633V27.5132C42.8633 27.935 42.7263 28.2935 42.4521 28.5887C42.1779 28.8629 41.8194 29 41.3765 29ZM42.8633 17.5798H47.7035C48.7158 17.5798 49.6121 17.3583 50.3925 16.9154C51.1728 16.4725 51.7844 15.8609 52.2273 15.0806C52.6702 14.3003 52.8916 13.4145 52.8916 12.4233C52.8916 11.3688 52.6702 10.4408 52.2273 9.63939C51.7844 8.83797 51.1728 8.21582 50.3925 7.77293C49.6121 7.30895 48.7158 7.07696 47.7035 7.07696H42.8633V17.5798ZM66.5772 29.1265C64.8267 29.1265 63.2766 28.7575 61.9269 28.0193C60.5982 27.2601 59.5542 26.2267 58.795 24.9191C58.0358 23.5904 57.6561 22.0719 57.6561 20.3637C57.6561 18.6343 58.0147 17.1158 58.7317 15.8082C59.4488 14.4795 60.44 13.4461 61.7054 12.708C62.9708 11.9487 64.4366 11.5691 66.1027 11.5691C67.7266 11.5691 69.1291 11.9382 70.3101 12.6763C71.4912 13.3934 72.398 14.3952 73.0308 15.6817C73.6634 16.9471 73.9798 18.4128 73.9798 20.0789C73.9798 20.4375 73.8533 20.7433 73.6002 20.9963C73.3682 21.2283 73.0518 21.3443 72.6511 21.3443H59.6492V19.0033H72.6828L71.3857 19.9208C71.3646 18.803 71.1432 17.8012 70.7214 16.9154C70.2996 16.0297 69.6985 15.3337 68.9182 14.8275C68.1379 14.3214 67.1994 14.0683 66.1027 14.0683C64.9006 14.0683 63.8566 14.3425 62.9708 14.8908C62.1061 15.4391 61.4418 16.1878 60.9778 17.1369C60.5138 18.0859 60.2819 19.1615 60.2819 20.3637C60.2819 21.5658 60.5455 22.6414 61.0727 23.5904C61.6211 24.5184 62.3592 25.2565 63.2872 25.8049C64.2362 26.3532 65.3329 26.6274 66.5772 26.6274C67.2521 26.6274 67.9481 26.5008 68.6651 26.2478C69.4033 25.9947 69.9832 25.6994 70.405 25.362C70.7003 25.13 71.0167 25.014 71.3541 25.014C71.6915 24.9929 71.9868 25.0878 72.2399 25.2987C72.5562 25.594 72.7249 25.9209 72.746 26.2794C72.7671 26.6168 72.6195 26.9121 72.3031 27.1652C71.5861 27.7346 70.6898 28.2091 69.6142 28.5887C68.5597 28.9473 67.5474 29.1265 66.5772 29.1265ZM84.5827 29C83.5071 29 82.537 28.7364 81.6723 28.2091C80.8076 27.6608 80.1327 26.9332 79.6477 26.0263C79.1626 25.0984 78.92 24.0439 78.92 22.8628V7.64639C78.92 7.22459 79.0466 6.8766 79.2997 6.60243C79.5738 6.32826 79.9218 6.19118 80.3436 6.19118C80.7654 6.19118 81.1134 6.32826 81.3876 6.60243C81.6617 6.8766 81.7988 7.22459 81.7988 7.64639V22.8628C81.7988 23.8119 82.0625 24.5922 82.5897 25.2038C83.117 25.8154 83.7813 26.1212 84.5827 26.1212H85.5634C85.9219 26.1212 86.2172 26.2583 86.4492 26.5325C86.7023 26.8066 86.8288 27.1546 86.8288 27.5764C86.8288 27.9982 86.6706 28.3462 86.3543 28.6204C86.059 28.8735 85.6688 29 85.1838 29H84.5827ZM77.2118 14.8275C76.8321 14.8275 76.5158 14.7115 76.2627 14.4795C76.0096 14.2476 75.8831 13.9523 75.8831 13.5938C75.8831 13.2141 76.0096 12.9083 76.2627 12.6763C76.5158 12.4444 76.8321 12.3284 77.2118 12.3284H84.8358C85.2154 12.3284 85.5318 12.4444 85.7848 12.6763C86.0379 12.9083 86.1645 13.2141 86.1645 13.5938C86.1645 13.9523 86.0379 14.2476 85.7848 14.4795C85.5318 14.7115 85.2154 14.8275 84.8358 14.8275H77.2118Z" fill="#F17727"/>
<path d="M102.183 29.3163C100.475 29.3163 98.8722 29 97.3749 28.3673C95.8986 27.7135 94.6015 26.8066 93.4838 25.6467C92.3871 24.4867 91.5224 23.137 90.8897 21.5974C90.257 20.0578 89.9406 18.4023 89.9406 16.6307C89.9406 14.8803 90.2464 13.2458 90.8581 11.7273C91.4907 10.1877 92.366 8.83797 93.4838 7.67802C94.6015 6.51807 95.8986 5.6112 97.3749 4.95741C98.8512 4.30363 100.454 3.97673 102.183 3.97673C103.765 3.97673 105.157 4.19818 106.359 4.64106C107.561 5.06286 108.753 5.75883 109.934 6.72897C110.103 6.85551 110.219 7.00314 110.282 7.17186C110.366 7.31949 110.398 7.47767 110.377 7.64639C110.377 7.79402 110.345 7.94165 110.282 8.08928C110.261 8.40563 110.124 8.66925 109.871 8.88015C109.639 9.06996 109.354 9.16487 109.017 9.16487C108.679 9.16487 108.363 9.04887 108.067 8.81688C107.266 8.12091 106.422 7.59366 105.537 7.23513C104.651 6.8766 103.533 6.69734 102.183 6.69734C100.897 6.69734 99.6842 6.96096 98.5454 7.48821C97.4276 8.01546 96.4364 8.73252 95.5717 9.63939C94.707 10.5463 94.0321 11.6008 93.547 12.8029C93.062 14.005 92.8194 15.281 92.8194 16.6307C92.8194 18.0227 93.062 19.3197 93.547 20.5218C94.0321 21.7029 94.707 22.7574 95.5717 23.6853C96.4364 24.5922 97.4276 25.2987 98.5454 25.8049C99.6842 26.311 100.897 26.5641 102.183 26.5641C103.301 26.5641 104.356 26.3848 105.347 26.0263C106.338 25.6467 107.277 25.1194 108.162 24.4446C108.5 24.1915 108.837 24.086 109.175 24.1282C109.512 24.1493 109.797 24.2864 110.029 24.5395C110.261 24.7715 110.377 25.0984 110.377 25.5202C110.377 25.71 110.345 25.8998 110.282 26.0896C110.24 26.2583 110.124 26.4165 109.934 26.5641C108.837 27.5342 107.625 28.2408 106.296 28.6837C104.988 29.1054 103.617 29.3163 102.183 29.3163ZM110.377 25.5202L107.53 24.9191V19.0033H102.943C102.521 19.0033 102.162 18.8768 101.867 18.6237C101.593 18.3706 101.456 18.0543 101.456 17.6747C101.456 17.2951 101.593 16.9893 101.867 16.7573C102.162 16.5042 102.521 16.3776 102.943 16.3776H108.922C109.365 16.3776 109.712 16.5147 109.966 16.7889C110.24 17.0631 110.377 17.4111 110.377 17.8329V25.5202ZM122.664 29.1582C121.188 29.1582 119.87 28.8524 118.71 28.2408C117.55 27.6081 116.633 26.6906 115.958 25.4885C115.283 24.2864 114.945 22.8206 114.945 21.0913V13.1192C114.945 12.7185 115.082 12.3811 115.357 12.1069C115.652 11.8117 116 11.664 116.401 11.664C116.822 11.664 117.17 11.8117 117.445 12.1069C117.74 12.3811 117.887 12.7185 117.887 13.1192V21.0913C117.887 22.3145 118.119 23.3268 118.583 24.1282C119.047 24.9296 119.67 25.5307 120.45 25.9314C121.251 26.311 122.148 26.5008 123.139 26.5008C124.109 26.5008 124.963 26.311 125.701 25.9314C126.461 25.5518 127.062 25.0456 127.504 24.4129C127.968 23.7591 128.2 23.0315 128.2 22.2301H130.099C130.056 23.5377 129.708 24.7187 129.055 25.7732C128.422 26.8277 127.547 27.6608 126.429 28.2724C125.311 28.8629 124.056 29.1582 122.664 29.1582ZM129.656 29C129.234 29 128.886 28.8629 128.612 28.5887C128.338 28.3146 128.2 27.9666 128.2 27.5448V13.1192C128.2 12.6974 128.338 12.3495 128.612 12.0753C128.886 11.8011 129.234 11.664 129.656 11.664C130.077 11.664 130.425 11.8011 130.7 12.0753C130.974 12.3495 131.111 12.6974 131.111 13.1192V27.5448C131.111 27.9666 130.974 28.3146 130.7 28.5887C130.425 28.8629 130.077 29 129.656 29ZM144.166 29.1265C142.584 29.1265 141.171 28.7469 139.927 27.9877C138.683 27.2284 137.702 26.1845 136.985 24.8558C136.268 23.5271 135.909 22.0298 135.909 20.3637C135.909 18.6765 136.289 17.1791 137.048 15.8715C137.829 14.5428 138.873 13.4989 140.18 12.7396C141.509 11.9593 142.996 11.5691 144.641 11.5691C146.307 11.5691 147.794 11.9593 149.101 12.7396C150.409 13.4989 151.442 14.5428 152.201 15.8715C152.982 17.2002 153.383 18.6975 153.404 20.3637L152.265 20.6484C152.265 22.2512 151.906 23.6959 151.189 24.9824C150.472 26.2688 149.502 27.2812 148.279 28.0193C147.077 28.7575 145.706 29.1265 144.166 29.1265ZM144.641 26.5325C145.78 26.5325 146.792 26.2688 147.678 25.7416C148.563 25.1933 149.259 24.4551 149.766 23.5271C150.293 22.5781 150.556 21.5236 150.556 20.3637C150.556 19.1826 150.293 18.1281 149.766 17.2002C149.259 16.2511 148.563 15.513 147.678 14.9857C146.792 14.4374 145.78 14.1632 144.641 14.1632C143.544 14.1632 142.542 14.4374 141.635 14.9857C140.729 15.513 140.011 16.2511 139.484 17.2002C138.978 18.1281 138.725 19.1826 138.725 20.3637C138.725 21.5236 138.978 22.5781 139.484 23.5271C140.011 24.4551 140.729 25.1933 141.635 25.7416C142.542 26.2688 143.544 26.5325 144.641 26.5325ZM151.917 29.0316C151.495 29.0316 151.147 28.8946 150.873 28.6204C150.599 28.3462 150.462 27.9982 150.462 27.5764V22.5148L151.063 19.4779L153.404 20.3637V27.5764C153.404 27.9982 153.256 28.3462 152.961 28.6204C152.687 28.8946 152.339 29.0316 151.917 29.0316ZM159.502 18.2441C159.544 16.9576 159.871 15.8082 160.483 14.7959C161.116 13.7836 161.949 12.9822 162.982 12.3916C164.016 11.8011 165.154 11.5059 166.399 11.5059C167.559 11.5059 168.423 11.6851 168.993 12.0437C169.583 12.4022 169.805 12.8556 169.657 13.404C169.594 13.7203 169.467 13.9523 169.277 14.0999C169.088 14.2265 168.866 14.3003 168.613 14.3214C168.36 14.3214 168.086 14.3003 167.791 14.2581C166.504 14.0472 165.355 14.0788 164.342 14.353C163.33 14.6272 162.529 15.1017 161.938 15.7766C161.348 16.4515 161.052 17.274 161.052 18.2441H159.502ZM159.597 29C159.154 29 158.806 28.884 158.553 28.652C158.3 28.3989 158.174 28.0404 158.174 27.5764V13.1192C158.174 12.6764 158.3 12.3284 158.553 12.0753C158.806 11.8222 159.154 11.6957 159.597 11.6957C160.082 11.6957 160.441 11.8222 160.673 12.0753C160.926 12.3073 161.052 12.6553 161.052 13.1192V27.5764C161.052 28.0193 160.926 28.3673 160.673 28.6204C160.441 28.8735 160.082 29 159.597 29ZM179.767 29.1265C178.122 29.1265 176.635 28.7469 175.306 27.9877C173.999 27.2074 172.955 26.1529 172.174 24.8242C171.415 23.4955 171.035 21.9981 171.035 20.332C171.035 18.6659 171.394 17.1791 172.111 15.8715C172.828 14.5428 173.809 13.4989 175.053 12.7396C176.297 11.9593 177.71 11.5691 179.292 11.5691C180.6 11.5691 181.791 11.8433 182.867 12.3916C183.964 12.94 184.87 13.6781 185.588 14.6061V5.74829C185.588 5.3054 185.725 4.95741 185.999 4.70434C186.273 4.43017 186.621 4.29308 187.043 4.29308C187.486 4.29308 187.844 4.43017 188.118 4.70434C188.392 4.95741 188.53 5.3054 188.53 5.74829V20.3953C188.508 22.0403 188.108 23.5271 187.327 24.8558C186.568 26.1845 185.524 27.2284 184.196 27.9877C182.888 28.7469 181.412 29.1265 179.767 29.1265ZM179.767 26.5325C180.906 26.5325 181.918 26.2688 182.804 25.7416C183.689 25.1933 184.385 24.4551 184.892 23.5271C185.419 22.5781 185.682 21.5131 185.682 20.332C185.682 19.151 185.419 18.0965 184.892 17.1685C184.385 16.2406 183.689 15.513 182.804 14.9857C181.918 14.4374 180.906 14.1632 179.767 14.1632C178.67 14.1632 177.668 14.4374 176.761 14.9857C175.854 15.513 175.137 16.2406 174.61 17.1685C174.104 18.0965 173.851 19.151 173.851 20.332C173.851 21.5131 174.104 22.5781 174.61 23.5271C175.137 24.4551 175.854 25.1933 176.761 25.7416C177.668 26.2688 178.67 26.5325 179.767 26.5325ZM196.093 29C195.65 29 195.291 28.8629 195.017 28.5887C194.743 28.3146 194.606 27.9666 194.606 27.5448V13.1509C194.606 12.708 194.743 12.36 195.017 12.1069C195.291 11.8327 195.65 11.6957 196.093 11.6957C196.515 11.6957 196.863 11.8327 197.137 12.1069C197.411 12.36 197.548 12.708 197.548 13.1509V27.5448C197.548 27.9666 197.411 28.3146 197.137 28.5887C196.863 28.8629 196.515 29 196.093 29ZM196.061 8.69034C195.534 8.69034 195.08 8.50053 194.701 8.12091C194.321 7.74129 194.131 7.27731 194.131 6.72897C194.131 6.18063 194.321 5.7272 194.701 5.36867C195.102 4.98905 195.566 4.79924 196.093 4.79924C196.599 4.79924 197.042 4.98905 197.421 5.36867C197.822 5.7272 198.023 6.18063 198.023 6.72897C198.023 7.27731 197.833 7.74129 197.453 8.12091C197.073 8.50053 196.609 8.69034 196.061 8.69034ZM210.989 29.1265C209.407 29.1265 207.994 28.7469 206.75 27.9877C205.506 27.2284 204.525 26.1845 203.808 24.8558C203.091 23.5271 202.732 22.0298 202.732 20.3637C202.732 18.6765 203.112 17.1791 203.871 15.8715C204.651 14.5428 205.695 13.4989 207.003 12.7396C208.332 11.9593 209.818 11.5691 211.463 11.5691C213.13 11.5691 214.616 11.9593 215.924 12.7396C217.232 13.4989 218.265 14.5428 219.024 15.8715C219.805 17.2002 220.205 18.6975 220.226 20.3637L219.087 20.6484C219.087 22.2512 218.729 23.6959 218.012 24.9824C217.295 26.2688 216.325 27.2812 215.101 28.0193C213.899 28.7575 212.528 29.1265 210.989 29.1265ZM211.463 26.5325C212.602 26.5325 213.615 26.2688 214.5 25.7416C215.386 25.1933 216.082 24.4551 216.588 23.5271C217.116 22.5781 217.379 21.5236 217.379 20.3637C217.379 19.1826 217.116 18.1281 216.588 17.2002C216.082 16.2511 215.386 15.513 214.5 14.9857C213.615 14.4374 212.602 14.1632 211.463 14.1632C210.367 14.1632 209.365 14.4374 208.458 14.9857C207.551 15.513 206.834 16.2511 206.307 17.2002C205.801 18.1281 205.548 19.1826 205.548 20.3637C205.548 21.5236 205.801 22.5781 206.307 23.5271C206.834 24.4551 207.551 25.1933 208.458 25.7416C209.365 26.2688 210.367 26.5325 211.463 26.5325ZM218.739 29.0316C218.318 29.0316 217.97 28.8946 217.696 28.6204C217.421 28.3462 217.284 27.9982 217.284 27.5764V22.5148L217.885 19.4779L220.226 20.3637V27.5764C220.226 27.9982 220.079 28.3462 219.783 28.6204C219.509 28.8946 219.161 29.0316 218.739 29.0316ZM239.707 29.0316C239.285 29.0316 238.926 28.8946 238.631 28.6204C238.357 28.3251 238.22 27.9771 238.22 27.5764V19.6044C238.22 18.3601 237.988 17.3478 237.524 16.5675C237.06 15.766 236.438 15.1755 235.657 14.7959C234.877 14.3952 233.981 14.1948 232.968 14.1948C232.019 14.1948 231.165 14.3846 230.406 14.7643C229.647 15.1439 229.035 15.65 228.571 16.2827C228.128 16.9154 227.907 17.643 227.907 18.4656H226.009C226.03 17.1369 226.367 15.9558 227.021 14.9224C227.675 13.8679 228.56 13.0454 229.678 12.4549C230.796 11.8433 232.051 11.5375 233.443 11.5375C234.919 11.5375 236.237 11.8538 237.397 12.4865C238.557 13.0981 239.475 14.005 240.149 15.2071C240.824 16.4093 241.162 17.875 241.162 19.6044V27.5764C241.162 27.9771 241.014 28.3251 240.719 28.6204C240.445 28.8946 240.107 29.0316 239.707 29.0316ZM226.451 29.0316C226.03 29.0316 225.682 28.8946 225.408 28.6204C225.133 28.3462 224.996 27.9982 224.996 27.5764V13.1509C224.996 12.708 225.133 12.36 225.408 12.1069C225.682 11.8327 226.03 11.6957 226.451 11.6957C226.894 11.6957 227.242 11.8327 227.495 12.1069C227.77 12.36 227.907 12.708 227.907 13.1509V27.5764C227.907 27.9982 227.77 28.3462 227.495 28.6204C227.242 28.8946 226.894 29.0316 226.451 29.0316ZM252.699 29.1265C251.307 29.1265 249.989 28.9156 248.744 28.4938C247.5 28.051 246.519 27.4499 245.802 26.6906C245.528 26.3743 245.412 26.0263 245.454 25.6467C245.496 25.2671 245.686 24.9402 246.024 24.666C246.382 24.3918 246.751 24.2758 247.131 24.318C247.511 24.3602 247.827 24.5289 248.08 24.8242C248.502 25.2882 249.113 25.6889 249.915 26.0263C250.737 26.3638 251.634 26.5325 252.604 26.5325C253.975 26.5325 254.987 26.311 255.641 25.8681C256.316 25.4042 256.664 24.8347 256.685 24.1598C256.685 23.4639 256.358 22.8839 255.704 22.4199C255.05 21.9349 253.901 21.5552 252.256 21.2811C250.126 20.8804 248.576 20.2582 247.605 19.4146C246.635 18.571 246.15 17.5481 246.15 16.346C246.15 15.2704 246.445 14.3846 247.036 13.6887C247.648 12.9716 248.438 12.4444 249.409 12.1069C250.4 11.7484 251.444 11.5691 252.54 11.5691C253.932 11.5691 255.156 11.8011 256.21 12.2651C257.265 12.708 258.108 13.3301 258.741 14.1316C259.015 14.4479 259.131 14.7748 259.089 15.1122C259.068 15.4497 258.899 15.7344 258.583 15.9664C258.266 16.1562 257.897 16.2195 257.476 16.1562C257.075 16.0929 256.737 15.9137 256.463 15.6184C255.936 15.0701 255.345 14.6904 254.692 14.4795C254.059 14.2476 253.321 14.1316 252.477 14.1316C251.465 14.1316 250.621 14.3214 249.946 14.701C249.293 15.0806 248.966 15.5973 248.966 16.2511C248.966 16.6729 249.071 17.042 249.282 17.3583C249.514 17.6747 249.936 17.9699 250.547 18.2441C251.159 18.4972 252.034 18.7292 253.173 18.9401C254.755 19.2353 255.999 19.6255 256.906 20.1106C257.834 20.5956 258.498 21.1651 258.899 21.8189C259.3 22.4726 259.5 23.2108 259.5 24.0333C259.5 25.0034 259.226 25.8787 258.678 26.659C258.15 27.4183 257.381 28.0193 256.368 28.4622C255.356 28.9051 254.133 29.1265 252.699 29.1265Z" fill="#1F9EAC"/>
<g filter="url(#filter0_d_12_40)">
<ellipse cx="16.7829" cy="16.3656" rx="15.7829" ry="15.3656" fill="url(#paint0_linear_12_40)"/>
</g>
<path d="M8.43775 16.5449C7.77136 16.5449 7.21019 16.323 6.75424 15.8791C6.29829 15.4352 6.07031 14.8888 6.07031 14.2401C6.07031 13.5913 6.29829 13.045 6.75424 12.6011C7.21019 12.1572 7.77136 11.9352 8.43775 11.9352C9.10413 11.9352 9.6653 12.1572 10.1213 12.6011C10.5772 13.045 10.8052 13.5913 10.8052 14.2401C10.8052 14.8888 10.5772 15.4352 10.1213 15.8791C9.6653 16.323 9.10413 16.5449 8.43775 16.5449ZM13.3041 12.1913C12.6377 12.1913 12.0766 11.9694 11.6206 11.5255C11.1647 11.0816 10.9367 10.5353 10.9367 9.8865C10.9367 9.23773 11.1647 8.6914 11.6206 8.24751C12.0766 7.80361 12.6377 7.58167 13.3041 7.58167C13.9705 7.58167 14.5317 7.80361 14.9876 8.24751C15.4436 8.6914 15.6716 9.23773 15.6716 9.8865C15.6716 10.5353 15.4436 11.0816 14.9876 11.5255C14.5317 11.9694 13.9705 12.1913 13.3041 12.1913ZM19.8803 12.1913C19.214 12.1913 18.6528 11.9694 18.1968 11.5255C17.7409 11.0816 17.5129 10.5353 17.5129 9.8865C17.5129 9.23773 17.7409 8.6914 18.1968 8.24751C18.6528 7.80361 19.214 7.58167 19.8803 7.58167C20.5467 7.58167 21.1079 7.80361 21.5638 8.24751C22.0198 8.6914 22.2478 9.23773 22.2478 9.8865C22.2478 10.5353 22.0198 11.0816 21.5638 11.5255C21.1079 11.9694 20.5467 12.1913 19.8803 12.1913ZM24.7467 16.5449C24.0803 16.5449 23.5192 16.323 23.0632 15.8791C22.6073 15.4352 22.3793 14.8888 22.3793 14.2401C22.3793 13.5913 22.6073 13.045 23.0632 12.6011C23.5192 12.1572 24.0803 11.9352 24.7467 11.9352C25.4131 11.9352 25.9743 12.1572 26.4302 12.6011C26.8862 13.045 27.1142 13.5913 27.1142 14.2401C27.1142 14.8888 26.8862 15.4352 26.4302 15.8791C25.9743 16.323 25.4131 16.5449 24.7467 16.5449ZM10.963 27.0447C10.2265 27.0447 9.62146 26.7758 9.14798 26.238C8.67449 25.7002 8.43775 25.0643 8.43775 24.3301C8.43775 23.6131 8.66134 22.9771 9.10852 22.4222C9.5557 21.8674 10.0336 21.3338 10.5421 20.8217C10.9279 20.4461 11.2874 20.0491 11.6206 19.6308C11.9538 19.2125 12.2695 18.7815 12.5676 18.3376C13.0762 17.5864 13.6461 16.8864 14.2774 16.2376C14.9087 15.5888 15.6803 15.2644 16.5922 15.2644C17.5041 15.2644 18.2801 15.5888 18.9202 16.2376C19.5603 16.8864 20.1346 17.5949 20.6432 18.3632C20.9413 18.8071 21.2526 19.2339 21.577 19.6436C21.9014 20.0534 22.2565 20.4461 22.6423 20.8217C23.1509 21.3338 23.6288 21.8674 24.076 22.4222C24.5231 22.9771 24.7467 23.6131 24.7467 24.3301C24.7467 25.0643 24.51 25.7002 24.0365 26.238C23.563 26.7758 22.958 27.0447 22.2215 27.0447C21.2745 27.0447 20.3363 26.9679 19.4069 26.8142C18.4774 26.6606 17.5392 26.5837 16.5922 26.5837C15.6453 26.5837 14.7071 26.6606 13.7776 26.8142C12.8482 26.9679 11.91 27.0447 10.963 27.0447Z" fill="white"/>
<defs>
<filter id="filter0_d_12_40" x="0.0114069" y="0.505703" width="33.543" height="32.7083" filterUnits="userSpaceOnUse" color-interpolation-filters="sRGB">
<feFlood flood-opacity="0" result="BackgroundImageFix"/>
<feColorMatrix in="SourceAlpha" type="matrix" values="0 0 0 0 0 0 0 0 0 0 0 0 0 0 0 0 0 0 127 0" result="hardAlpha"/>
<feOffset dy="0.494297"/>
<feGaussianBlur stdDeviation="0.494297"/>
<feColorMatrix type="matrix" values="0 0 0 0 0 0 0 0 0 0 0 0 0 0 0 0 0 0 0.1 0"/>
<feBlend mode="normal" in2="BackgroundImageFix" result="effect1_dropShadow_12_40"/>
<feBlend mode="normal" in="SourceGraphic" in2="effect1_dropShadow_12_40" result="shape"/>
</filter>
<linearGradient id="paint0_linear_12_40" x1="16.7829" y1="1" x2="16.7829" y2="31.7311" gradientUnits="userSpaceOnUse">
<stop stop-color="#FF934C"/>
<stop offset="1" stop-color="#F17727"/>
</linearGradient>
</defs>
</svg>
